<?xml version="1.0" encoding="utf-8" standalone="no"?>
<!DOCTYPE svg PUBLIC "-//W3C//DTD SVG 1.1//EN"
  "http://www.w3.org/Graphics/SVG/1.1/DTD/svg11.dtd">
<svg xmlns:xlink="http://www.w3.org/1999/xlink" width="84.0275pt" height="17.37875pt" viewBox="0 0 84.0275 17.37875" xmlns="http://www.w3.org/2000/svg" version="1.1">
 <metadata>
  <rdf:RDF xmlns:dc="http://purl.org/dc/elements/1.1/" xmlns:cc="http://creativecommons.org/ns#" xmlns:rdf="http://www.w3.org/1999/02/22-rdf-syntax-ns#">
   <cc:Work>
    <dc:type rdf:resource="http://purl.org/dc/dcmitype/StillImage"/>
    <dc:date>2026-07-01T13:48:28.000828</dc:date>
    <dc:format>image/svg+xml</dc:format>
    <dc:creator>
     <cc:Agent>
      <dc:title>Matplotlib v3.10.8, https://matplotlib.org/</dc:title>
     </cc:Agent>
    </dc:creator>
   </cc:Work>
  </rdf:RDF>
 </metadata>
 <defs>
  <style type="text/css">*{stroke-linejoin: round; stroke-linecap: butt}</style>
 </defs>
 <g id="figure_1">
  <g id="patch_1">
   <path d="M 0 17.37875 
L 84.0275 17.37875 
L 84.0275 0 
L 0 0 
L 0 17.37875 
z
" style="fill: none; opacity: 0"/>
  </g>
  <g id="text_1">
   <!-- β̂_MAP = μₙ -->
   <g style="fill: #18212b" transform="translate(1.44 12.637813) scale(0.14 -0.14)">
    <defs>
     <path id="DejaVuSans-3b2" d="M 1178 216 
L 1178 -1331 
L 600 -1331 
L 600 3478 
Q 600 4903 1931 4903 
Q 3288 4903 3288 3700 
Q 3288 2844 2750 2531 
Q 3625 2250 3625 1416 
Q 3625 -66 2119 -66 
Q 1456 -66 1178 216 
z
M 1178 966 
Q 1525 425 2141 425 
Q 3041 425 3041 1406 
Q 3041 2288 1591 2219 
L 1591 2750 
Q 2725 2750 2725 3750 
Q 2725 4434 1994 4434 
Q 1178 4434 1178 3459 
L 1178 966 
z
" transform="scale(0.015625)"/>
     <path id="DejaVuSans-302" d="M -1831 5119 
L -1369 5119 
L -603 3944 
L -1038 3944 
L -1600 4709 
L -2163 3944 
L -2597 3944 
L -1831 5119 
z
M -1600 3584 
L -1600 3584 
z
" transform="scale(0.015625)"/>
     <path id="DejaVuSans-5f" d="M 3263 -1063 
L 3263 -1509 
L -63 -1509 
L -63 -1063 
L 3263 -1063 
z
" transform="scale(0.015625)"/>
     <path id="DejaVuSans-4d" d="M 628 4666 
L 1569 4666 
L 2759 1491 
L 3956 4666 
L 4897 4666 
L 4897 0 
L 4281 0 
L 4281 4097 
L 3078 897 
L 2444 897 
L 1241 4097 
L 1241 0 
L 628 0 
L 628 4666 
z
" transform="scale(0.015625)"/>
     <path id="DejaVuSans-41" d="M 2188 4044 
L 1331 1722 
L 3047 1722 
L 2188 4044 
z
M 1831 4666 
L 2547 4666 
L 4325 0 
L 3669 0 
L 3244 1197 
L 1141 1197 
L 716 0 
L 50 0 
L 1831 4666 
z
" transform="scale(0.015625)"/>
     <path id="DejaVuSans-50" d="M 1259 4147 
L 1259 2394 
L 2053 2394 
Q 2494 2394 2734 2622 
Q 2975 2850 2975 3272 
Q 2975 3691 2734 3919 
Q 2494 4147 2053 4147 
L 1259 4147 
z
M 628 4666 
L 2053 4666 
Q 2838 4666 3239 4311 
Q 3641 3956 3641 3272 
Q 3641 2581 3239 2228 
Q 2838 1875 2053 1875 
L 1259 1875 
L 1259 0 
L 628 0 
L 628 4666 
z
" transform="scale(0.015625)"/>
     <path id="DejaVuSans-20" transform="scale(0.015625)"/>
     <path id="DejaVuSans-3d" d="M 678 2906 
L 4684 2906 
L 4684 2381 
L 678 2381 
L 678 2906 
z
M 678 1631 
L 4684 1631 
L 4684 1100 
L 678 1100 
L 678 1631 
z
" transform="scale(0.015625)"/>
     <path id="DejaVuSans-3bc" d="M 544 -1331 
L 544 3500 
L 1119 3500 
L 1119 1325 
Q 1119 872 1334 640 
Q 1550 409 1972 409 
Q 2434 409 2667 671 
Q 2900 934 2900 1459 
L 2900 3500 
L 3475 3500 
L 3475 806 
Q 3475 619 3529 530 
Q 3584 441 3700 441 
Q 3728 441 3778 458 
Q 3828 475 3916 513 
L 3916 50 
Q 3788 -22 3673 -56 
Q 3559 -91 3450 -91 
Q 3234 -91 3106 31 
Q 2978 153 2931 403 
Q 2775 156 2548 32 
Q 2322 -91 2016 -91 
Q 1697 -91 1473 31 
Q 1250 153 1119 397 
L 1119 -1331 
L 544 -1331 
z
" transform="scale(0.015625)"/>
     <path id="DejaVuSans-2099" d="M 2213 1160 
L 2213 -24 
L 1850 -24 
L 1850 1147 
Q 1850 1426 1728 1565 
Q 1606 1704 1363 1704 
Q 1069 1704 900 1536 
Q 731 1369 731 1082 
L 731 -24 
L 366 -24 
L 366 1935 
L 731 1935 
L 731 1632 
Q 859 1807 1036 1894 
Q 1213 1982 1444 1982 
Q 1822 1982 2017 1772 
Q 2213 1563 2213 1160 
z
" transform="scale(0.015625)"/>
    </defs>
    <use xlink:href="#DejaVuSans-3b2"/>
    <use xlink:href="#DejaVuSans-302" transform="translate(63.818359 0)"/>
    <use xlink:href="#DejaVuSans-5f" transform="translate(63.818359 0)"/>
    <use xlink:href="#DejaVuSans-4d" transform="translate(113.818359 0)"/>
    <use xlink:href="#DejaVuSans-41" transform="translate(200.097656 0)"/>
    <use xlink:href="#DejaVuSans-50" transform="translate(268.505859 0)"/>
    <use xlink:href="#DejaVuSans-20" transform="translate(328.808594 0)"/>
    <use xlink:href="#DejaVuSans-3d" transform="translate(360.595703 0)"/>
    <use xlink:href="#DejaVuSans-20" transform="translate(444.384766 0)"/>
    <use xlink:href="#DejaVuSans-3bc" transform="translate(476.171875 0)"/>
    <use xlink:href="#DejaVuSans-2099" transform="translate(539.794922 0)"/>
   </g>
  </g>
 </g>
</svg>
