<?xml version="1.0" encoding="utf-8" standalone="no"?>
<!DOCTYPE svg PUBLIC "-//W3C//DTD SVG 1.1//EN"
  "http://www.w3.org/Graphics/SVG/1.1/DTD/svg11.dtd">
<svg xmlns:xlink="http://www.w3.org/1999/xlink" width="63.952813pt" height="16.429375pt" viewBox="0 0 63.952813 16.429375" xmlns="http://www.w3.org/2000/svg" version="1.1">
 <metadata>
  <rdf:RDF xmlns:dc="http://purl.org/dc/elements/1.1/" xmlns:cc="http://creativecommons.org/ns#" xmlns:rdf="http://www.w3.org/1999/02/22-rdf-syntax-ns#">
   <cc:Work>
    <dc:type rdf:resource="http://purl.org/dc/dcmitype/StillImage"/>
    <dc:date>2026-07-01T13:48:27.528172</dc:date>
    <dc:format>image/svg+xml</dc:format>
    <dc:creator>
     <cc:Agent>
      <dc:title>Matplotlib v3.10.8, https://matplotlib.org/</dc:title>
     </cc:Agent>
    </dc:creator>
   </cc:Work>
  </rdf:RDF>
 </metadata>
 <defs>
  <style type="text/css">*{stroke-linejoin: round; stroke-linecap: butt}</style>
 </defs>
 <g id="figure_1">
  <g id="patch_1">
   <path d="M 0 16.429375 
L 63.952813 16.429375 
L 63.952813 0 
L 0 0 
L 0 16.429375 
z
" style="fill: none; opacity: 0"/>
  </g>
  <g id="text_1">
   <!-- y ∈ ℝ^n -->
   <g style="fill: #18212b" transform="translate(1.44 12.077813) scale(0.14 -0.14)">
    <defs>
     <path id="DejaVuSans-79" d="M 2059 -325 
Q 1816 -950 1584 -1140 
Q 1353 -1331 966 -1331 
L 506 -1331 
L 506 -850 
L 844 -850 
Q 1081 -850 1212 -737 
Q 1344 -625 1503 -206 
L 1606 56 
L 191 3500 
L 800 3500 
L 1894 763 
L 2988 3500 
L 3597 3500 
L 2059 -325 
z
" transform="scale(0.015625)"/>
     <path id="DejaVuSans-20" transform="scale(0.015625)"/>
     <path id="DejaVuSans-2208" d="M 1072 1959 
Q 1094 1728 1291 1353 
Q 1522 919 1959 675 
Q 2388 438 2850 434 
L 5028 434 
L 5028 -63 
L 2850 -63 
Q 2250 -63 1695 246 
Q 1141 556 844 1106 
Q 547 1656 547 2241 
Q 547 2819 844 3369 
Q 1141 3919 1695 4231 
Q 2250 4544 2850 4544 
L 5028 4544 
L 5028 4047 
L 2850 4047 
Q 2388 4044 1959 3803 
Q 1525 3556 1291 3125 
Q 1091 2750 1063 2459 
L 5028 2459 
L 5028 1959 
L 1072 1959 
z
" transform="scale(0.015625)"/>
     <path id="DejaVuSans-211d" d="M 3984 1197 
Q 3747 1669 3534 1819 
Q 3319 1972 2944 1972 
L 2803 1972 
Q 3044 1825 3359 1197 
L 3806 313 
L 4428 313 
L 3984 1197 
z
M 3603 2159 
Q 3769 2081 3945 1875 
Q 4122 1669 4316 1275 
L 4956 0 
L 3581 0 
L 2984 1197 
Q 2753 1666 2536 1819 
Q 2319 1972 1944 1972 
L 1881 1972 
L 1881 0 
L 625 0 
L 625 4666 
L 2747 4666 
Q 3547 4666 3940 4331 
Q 4334 3997 4334 3322 
Q 4334 2672 3969 2366 
Q 3816 2238 3603 2159 
z
M 1881 4353 
L 1881 2284 
L 2897 2284 
Q 2972 2284 3044 2291 
L 3044 4347 
Q 2972 4353 2897 4353 
L 1881 4353 
z
M 3372 4281 
L 3372 2359 
Q 3575 2428 3709 2556 
Q 3991 2825 3991 3322 
Q 3991 3819 3713 4084 
Q 3581 4213 3372 4281 
z
M 938 4353 
L 938 313 
L 1569 313 
L 1569 4353 
L 938 4353 
z
" transform="scale(0.015625)"/>
     <path id="DejaVuSans-5e" d="M 2988 4666 
L 4684 2925 
L 4056 2925 
L 2681 4159 
L 1306 2925 
L 678 2925 
L 2375 4666 
L 2988 4666 
z
" transform="scale(0.015625)"/>
     <path id="DejaVuSans-6e" d="M 3513 2113 
L 3513 0 
L 2938 0 
L 2938 2094 
Q 2938 2591 2744 2837 
Q 2550 3084 2163 3084 
Q 1697 3084 1428 2787 
Q 1159 2491 1159 1978 
L 1159 0 
L 581 0 
L 581 3500 
L 1159 3500 
L 1159 2956 
Q 1366 3272 1645 3428 
Q 1925 3584 2291 3584 
Q 2894 3584 3203 3211 
Q 3513 2838 3513 2113 
z
" transform="scale(0.015625)"/>
    </defs>
    <use xlink:href="#DejaVuSans-79"/>
    <use xlink:href="#DejaVuSans-20" transform="translate(59.179688 0)"/>
    <use xlink:href="#DejaVuSans-2208" transform="translate(90.966797 0)"/>
    <use xlink:href="#DejaVuSans-20" transform="translate(178.076172 0)"/>
    <use xlink:href="#DejaVuSans-211d" transform="translate(209.863281 0)"/>
    <use xlink:href="#DejaVuSans-5e" transform="translate(289.0625 0)"/>
    <use xlink:href="#DejaVuSans-6e" transform="translate(372.851562 0)"/>
   </g>
  </g>
 </g>
</svg>
